<svg xmlns="http://www.w3.org/2000/svg" xmlns:xlink="http://www.w3.org/1999/xlink"><defs><style>
    .sprite-symbol-usage {display: none;}
    .sprite-symbol-usage:target {display: inline;}
  </style><symbol viewBox="0 0 1024 1024" id="etsy--sprite">
   <circle cx="512" cy="512" r="512" style="fill:#f56400" />
   <path d="M272.42 487.83v-81.77c0-3 .3-4.85 5.45-4.85h69.35c12.12 0 18.78 10.3 23.63 29.68l3.94 15.45h11.81c2.12-43.91 3.93-63 3.93-63s-29.68 3.33-47.24 3.33h-88.74l-47.55-1.5v12.72l16.05 3c11.21 2.12 13.93 4.54 14.84 14.84 0 0 .91 30.28.91 80.26s-.91 80-.91 80c0 9.08-3.64 12.41-14.84 14.54l-16.05 3v12.71l47.55-1.51h79.35c17.87 0 59.36 1.51 59.36 1.51.91-10.9 7-60.27 7.88-65.71h-11.21l-11.81 27c-9.39 21.19-23 22.71-38.16 22.71h-45.13c-15.14 0-22.41-6.06-22.41-19.08v-69.09s33 0 44.52.91c8.48.61 13.63 3 16.36 14.84l3.64 15.75h13l-.94-39.68 1.82-40h-13l-4.24 17.56c-2.73 11.51-4.54 13.63-16.36 14.84-13.32 1.52-44.82 1.21-44.82 1.21v.3zM452 414.55c-4.24 18.78-8.48 33.31-23.32 43-9.08 6.05-18.17 8.17-21.8 8.48v11.51h27v93c0 26 17.27 38.77 40.28 38.77 17.87 0 36.34-7.57 42.7-23.32l-6.36-8.18c-3 5.15-12.71 12.72-24.83 12.72-13.32 0-20.59-9.09-20.59-32.1v-82.1l44.83 3.33 2.42-20.6-47.33 1.82v-46l-13-.3zm95.7 143-11.51.3c.6 6.66.91 15.14.91 23 0 8.18-.3 15.75-.91 19.38 0 0 23 8.47 46.34 8.47 31.5 0 56.63-15.14 56.63-44.82 0-50.87-76.32-43.3-76.32-77.53 0-14.23 12.72-19.68 26.65-19.68 10.9 0 20 3.94 21.8 9.7l7.57 22.71 11.21-.6c.91-12.12 1.51-26 3.33-37.25-9.69-4.24-30-6.67-42.7-6.67-29.69 0-53.61 13-53.61 42.1 0 50.57 74.5 40.28 74.5 77.53 0 13.32-8.18 22.71-26.65 22.71-17 0-25.44-8.78-28.76-17.57l-8.49-21.8zm182.53 35c-17.53 49-39 61.66-58.34 61.66-8.17 0-12.09-3.63-13.31-9.36l-4.53-23.59-12.7.6c-2.42 13.91-4.84 29.33-8.16 42 7.56 5.74 20.25 8.77 30.23 8.77 20.86 0 52.6-2.73 81.62-71.65l48.67-114.87c3.93-9.37 5.44-10.28 16.93-14.82l6.36-2.39v-10.58l-28.72 1.51-30.83-1.51v10.58l7.86 2.41c7.86 2.42 11.49 5.44 11.49 10.89 0 2.72-.91 5.44-2.43 9.67-4.53 11.5-32.65 79.81-40.2 94.32l7.55-2.73c-13.3-32.95-33.55-88-36.57-97.33a15.06 15.06 0 0 1-.91-4.85c0-4.83 3.32-8.77 10.58-10.28l10-2.11v-10.57l-41.42 1.51-32.95-1.51v10.58l5.44 1.81c7.56 2.42 9.37 4.54 13.91 15.12 25.08 57.44 36.88 88.87 52.89 130l7.57-23.28z" style="fill:#fff" />
</symbol><symbol fill="none" viewBox="0 0 40 40" id="facebook--sprite"><g clip-path="url(#facebook--sprite_a)"><path fill="#3D5A98" d="M20 0C8.914 0 0 8.914 0 20s8.914 20 20 20h.8V26.286h-4.571v-5.372H20.8v-4c0-4.571 2.743-7.085 6.857-7.085 1.943 0 3.657.114 4.114.228v4.8h-2.857c-2.171 0-2.628 1.029-2.628 2.629v3.428h5.257l-.686 5.372h-4.571V38.97C34.286 36.343 40 28.8 40 20 40 8.914 31.086 0 20 0Z" /></g><defs></defs></symbol><clipPath id="facebook--sprite_a"><path fill="#fff" d="M0 0h40v40H0z" /></clipPath><symbol fill="none" viewBox="0 0 40 40" id="instagram--sprite"><g clip-path="url(#instagram--sprite_a)"><path fill="url(#instagram--sprite_b)" fill-rule="evenodd" d="M20 0c11.046 0 20 8.954 20 20s-8.954 20-20 20S0 31.046 0 20 8.954 0 20 0Zm-4.877 8.563h9.755c3.663 0 6.658 2.959 6.658 6.573v9.728c0 3.615-2.995 6.573-6.658 6.573h-9.755c-3.663 0-6.659-2.958-6.659-6.573v-9.728c0-3.614 2.996-6.573 6.659-6.573Zm4.815 5.261a6.45 6.45 0 0 1 6.448 6.449 6.45 6.45 0 0 1-6.448 6.448 6.45 6.45 0 0 1-6.449-6.448 6.45 6.45 0 0 1 6.449-6.448Zm0 2.179a4.272 4.272 0 0 1 0 8.54 4.272 4.272 0 0 1 0-8.54Zm6.238-3.072a1.047 1.047 0 1 1 0 2.094 1.047 1.047 0 0 1 0-2.094Zm-10.256-2.5h8.161c3.065 0 5.57 2.495 5.57 5.542v8.202c0 3.047-2.505 5.541-5.57 5.541h-8.16c-3.065 0-5.572-2.493-5.572-5.54v-8.203c0-3.047 2.507-5.541 5.571-5.541Z" clip-rule="evenodd" /></g><defs></defs></symbol><linearGradient id="instagram--sprite_b" x1="30.022" x2="9.978" y1="36.984" y2="3.016" gradientUnits="userSpaceOnUse"><stop stop-color="#F58529" /><stop offset=".169" stop-color="#FEDA77" /><stop offset=".478" stop-color="#DD2A7B" /><stop offset=".78" stop-color="#8134AF" /><stop offset="1" stop-color="#515BD4" /></linearGradient><clipPath id="instagram--sprite_a"><path fill="#fff" d="M0 0h40v40H0z" /></clipPath><symbol fill="none" viewBox="0 0 40 40" id="pinterest--sprite"><g clip-path="url(#pinterest--sprite_a)"><path fill="#BD071C" d="M19.92 0C8.924 0 0 8.854 0 19.763c0 8.38 5.259 15.494 12.59 18.34-.16-1.581-.32-3.953 0-5.692.318-1.581 2.39-9.802 2.39-9.802s-.637-1.107-.637-3.004c0-2.688 1.593-4.743 3.665-4.743 1.753 0 2.55 1.264 2.55 2.845 0 1.74-1.116 4.27-1.594 6.64-.478 1.898.956 3.637 3.028 3.637 3.506 0 6.215-3.636 6.215-9.012 0-4.743-3.506-8.063-8.287-8.063-5.737 0-8.924 4.269-8.924 8.538 0 1.739.637 3.478 1.434 4.585.16.158.16.316.16.632-.16.632-.478 1.897-.478 2.213-.16.317-.32.475-.638.317-2.55-1.107-3.984-4.743-3.984-7.59 0-6.165 4.622-12.015 13.227-12.015 6.853 0 12.271 4.901 12.271 11.383 0 6.799-4.303 12.332-10.358 12.332-2.072 0-3.985-1.106-4.622-2.213 0 0-.956 3.794-1.275 4.743-.478 1.74-1.594 3.794-2.55 5.217A18.42 18.42 0 0 0 20.08 40C31.076 40 40 31.146 40 20.237 40 9.328 30.916 0 19.92 0Z" /></g><defs></defs></symbol><clipPath id="pinterest--sprite_a"><path fill="#fff" d="M0 0h40v40H0z" /></clipPath><symbol viewBox="0 0 800 789.18" id="ravelry--sprite">
<path fill="#EE6E62" class="st0" d="M799.06,358.78c-1.99-17-2.8-34.24-6.17-50.96c-4.09-20.31-9.31-40.53-15.85-60.18  c-11.43-34.35-28.12-66.19-50.86-94.54c-9.85-12.28-19.83-24.61-31-35.66c-23.3-23.04-49.27-42.78-77.61-59.38  c-29.53-17.3-60.51-31.32-93.44-40.56c-18.15-5.09-36.69-8.93-55.21-12.52c-11.17-2.16-22.65-2.74-33.98-4.08  c-0.52-0.06-0.99-0.59-1.48-0.91C415.73,0,398,0,380.27,0c-3.97,0.64-7.92,1.52-11.92,1.89c-19.25,1.79-37.94,6.21-56.43,11.67  c-22.76,6.71-44.5,15.94-65.51,26.89c-22.01,11.48-42.85,24.89-62.73,39.72c-10.16,7.58-20.21,15.39-29.61,23.87  c-16.76,15.14-33.56,30.31-49.3,46.48c-21.26,21.85-39.59,46.11-55.43,72.26c-14.04,23.19-25.57,47.47-33.76,73.32  c-5.91,18.67-10.18,37.66-12.67,57.15c-2.48,19.44-3.54,38.94-2.56,58.41c1.12,22.15,3.17,44.23,7.29,66.16  c5.71,30.39,14.64,59.58,27.56,87.63c10.69,23.19,24.05,44.67,39.54,64.99c12.99,17.03,27.7,32.43,43.42,46.72  c21.08,19.16,44.17,35.78,68.83,50.29c29.24,17.21,59.93,30.92,92.09,41.56c21.88,7.24,44.27,12.4,66.95,16.17  c10,1.66,20.22,2.06,30.33,3.08c0.68,0.07,1.31,0.61,1.96,0.92c17.73,0,35.46,0,53.19,0c4.13-0.64,8.24-1.54,12.4-1.88  c26.91-2.19,52.89-8.77,78.23-17.62c28.34-9.91,55.52-22.57,80.64-39.16c16.06-10.6,31.95-21.5,47.34-33.04  c9.53-7.15,18.1-15.62,26.86-23.77c6.53-6.08,12.79-12.46,18.96-18.91c19.88-20.83,37.04-43.74,51.77-68.46  c15.72-26.38,28.59-54.1,36.74-83.73c4.71-17.12,8.15-34.6,11.56-52.04c1.7-8.68,2.06-17.63,3.08-26.45  c0.06-0.52,0.59-0.99,0.91-1.48c0-20.31,0-40.62,0-60.93C799.68,360.73,799.18,359.78,799.06,358.78z M533.65,356.89  c0,0-27.3-4.9-46.9-4.9c-44.8,0-55.3,24.5-55.3,60.9v154h-121.1v-313.6h121.1v52.5c14.7-44.1,44.1-59.5,102.2-59.5V356.89z" />
</symbol><symbol viewBox="0 0 24 24" id="twitter--sprite"><g><path d="M18.244 2.25h3.308l-7.227 8.26 8.502 11.24H16.17l-5.214-6.817L4.99 21.75H1.68l7.73-8.835L1.254 2.25H8.08l4.713 6.231zm-1.161 17.52h1.833L7.084 4.126H5.117z" /></g></symbol><symbol fill="none" viewBox="0 0 40 40" id="youtube--sprite"><g clip-path="url(#youtube--sprite_a)"><path fill="#E52D27" d="M40 20c0 11.046-8.954 20-20 20S0 31.046 0 20 8.954 0 20 0s20 8.954 20 20Z" /><path fill="#000" fill-opacity=".12" d="m17.372 16.152 6.029 4.025.845-.44-6.874-3.585Z" /><path fill="#fff" d="m17.374 23.3-.002-7.149 6.875 3.587-6.873 3.562Zm15.093-8.387s-.249-1.754-1.011-2.525c-.968-1.014-2.053-1.018-2.55-1.078-3.56-.257-8.9-.257-8.9-.257h-.012s-5.34 0-8.9.257c-.497.06-1.58.064-2.549 1.078-.763.771-1.011 2.525-1.011 2.525s-.255 2.06-.255 4.117v1.93c0 2.06.255 4.118.255 4.118s.248 1.753 1.011 2.526c.968 1.014 2.239.982 2.805 1.088 2.035.194 8.65.255 8.65.255s5.346-.008 8.906-.265c.497-.06 1.582-.064 2.55-1.078.762-.773 1.011-2.526 1.011-2.526s.254-2.058.254-4.117v-1.93a38.6 38.6 0 0 0-.254-4.118Z" /></g><defs></defs></symbol><clipPath id="youtube--sprite_a"><path fill="#fff" d="M0 0h40v40H0z" /></clipPath></defs><use id="etsy--sprite-usage" xlink:href="#etsy--sprite" class="sprite-symbol-usage" /><use id="facebook--sprite-usage" xlink:href="#facebook--sprite" class="sprite-symbol-usage" /><use id="instagram--sprite-usage" xlink:href="#instagram--sprite" class="sprite-symbol-usage" /><use id="pinterest--sprite-usage" xlink:href="#pinterest--sprite" class="sprite-symbol-usage" /><use id="ravelry--sprite-usage" xlink:href="#ravelry--sprite" class="sprite-symbol-usage" /><use id="twitter--sprite-usage" xlink:href="#twitter--sprite" class="sprite-symbol-usage" /><use id="youtube--sprite-usage" xlink:href="#youtube--sprite" class="sprite-symbol-usage" /></svg>
